<svg width="10" height="10" viewBox="0 0 10 10" fill="none" xmlns="http://www.w3.org/2000/svg">
<path fill-rule="evenodd" clip-rule="evenodd" d="M5 0C2.23864 0 0 2.23864 0 5C0 7.76136 2.23864 10 5 10C7.76136 10 10 7.76136 10 5C10 2.23864 7.76136 0 5 0ZM6.685 3.95773C6.7678 3.872 6.81361 3.75718 6.81258 3.638C6.81154 3.51882 6.76374 3.40481 6.67946 3.32054C6.59519 3.23626 6.48118 3.18846 6.362 3.18742C6.24282 3.18639 6.128 3.2322 6.04227 3.315L5 4.35727L3.95773 3.315C3.9158 3.27159 3.86564 3.23696 3.81018 3.21314C3.75473 3.18931 3.69508 3.17677 3.63473 3.17625C3.57437 3.17573 3.51452 3.18723 3.45866 3.21008C3.4028 3.23294 3.35204 3.26669 3.30937 3.30937C3.26669 3.35204 3.23294 3.4028 3.21008 3.45866C3.18723 3.51452 3.17573 3.57437 3.17625 3.63473C3.17677 3.69508 3.18931 3.75473 3.21314 3.81018C3.23696 3.86564 3.27159 3.9158 3.315 3.95773L4.35727 5L3.315 6.04227C3.27159 6.0842 3.23696 6.13436 3.21314 6.18982C3.18931 6.24527 3.17677 6.30492 3.17625 6.36527C3.17573 6.42563 3.18723 6.48548 3.21008 6.54134C3.23294 6.5972 3.26669 6.64796 3.30937 6.69063C3.35204 6.73331 3.4028 6.76706 3.45866 6.78992C3.51452 6.81277 3.57437 6.82428 3.63473 6.82375C3.69508 6.82323 3.75473 6.81069 3.81018 6.78686C3.86564 6.76304 3.9158 6.72841 3.95773 6.685L5 5.64273L6.04227 6.685C6.128 6.7678 6.24282 6.81361 6.362 6.81258C6.48118 6.81154 6.59519 6.76374 6.67946 6.67946C6.76374 6.59519 6.81154 6.48118 6.81258 6.362C6.81361 6.24282 6.7678 6.128 6.685 6.04227L5.64273 5L6.685 3.95773Z" fill="#DD172E"/>
</svg>
